# xmcd
#
# Track frame offsets:
#	150
#	13350
#	23025
#	32100
#	45975
#	59700
#	73950
#	84075
#	93731
#	108281
#	123356
#	137606
#	149981
#	160031
#	173381
#	182156
#	191906
#	201956
#	214556
#	226406
#	237131
#	247031
#	258731
#	272306
#	283256
#
# Disc length: 3938
#
# Revision: 1
# Processed by: cddbd v1.5.1PL0 Copyright (c) Steve Scherf et al.
# Submitted via: audiograbber 1.81.02
# Normalized: r0:DSETVAR1
#
DISCID=740f6019
DTITLE=Various Artist - Bloodstains on the Wall
DYEAR=1994
DGENRE=Blues
TTITLE0=Frank 'Honeyboy' Patt - Bloodstains On The Wall
TTITLE1=Frank 'Honeyboy' Patt - You Better Move On Away From Here
TTITLE2=Frank 'Honeyboy' Patt - Have You A Match
TTITLE3=Pine Bluff Pete - Uncle Sam Blues
TTITLE4=Pine Bluff Pete - A Woman Acts Funny
TTITLE5=Clarence London - Goin' Back To Mama
TTITLE6=Clarence London - Got A Letter This Morning
TTITLE7=Clarence London - Want To Boogie Woogie
TTITLE8=Big Joe Williams - Ride My New Car With Me
TTITLE9=Big Joe Williams - Rather Be Sloppy Drunk
TTITLE10=Country Jim Bledsoe - Dial 110 Blues
TTITLE11=Country Jim Bledsoe - Hollywood Boogie
TTITLE12=Country Jim Bledsoe - One Thing My Baby Likes
TTITLE13=Country Jim Bledsoe - Stormin' And Rainin'
TTITLE14=Little Temple - I Ate The Wrong Part
TTITLE15=Little Temple - What A Mistake
TTITLE16=Little Temple - Mean And Evil
TTITLE17=Little Temple - Cold Love
TTITLE18=Pete McKinley - Black Snake Blues
TTITLE19=Pete McKinley - Cryin' For My Baby
TTITLE20=Pete McKinley - Looka Here Boy
TTITLE21=Pete McKinley - Whistling Blues
TTITLE22=Pete McKinley - Don't Want Me Blues
TTITLE23=Pete McKinley - David's Boogie
TTITLE24=Pete McKinley - Sail On, Little Girl
EXTD=Specialty Records 7061\n© 1994
EXTT0=
EXTT1=
EXTT2=
EXTT3=
EXTT4=
EXTT5=
EXTT6=
EXTT7=
EXTT8=
EXTT9=
EXTT10=
EXTT11=
EXTT12=
EXTT13=
EXTT14=
EXTT15=
EXTT16=
EXTT17=
EXTT18=
EXTT19=
EXTT20=
EXTT21=
EXTT22=
EXTT23=
EXTT24=
PLAYORDER=
